<svg enable-background="new 0 0 808 405" viewBox="0 0 808 405" xmlns="http://www.w3.org/2000/svg" xmlns:xlink="http://www.w3.org/1999/xlink"><mask id="a" height="177.39" maskUnits="userSpaceOnUse" width="107.675" x="0" y=".385"><path clip-rule="evenodd" d="m0 .385h107.675v177.39h-107.675z" fill="#fff" fill-rule="evenodd"/></mask><mask id="b" height="183.84" maskUnits="userSpaceOnUse" width="174.661" x=".059" y=".16"><path clip-rule="evenodd" d="m.059.16h174.661v183.84h-174.661z" fill="#fff" fill-rule="evenodd"/></mask><mask id="c" height="183.84" maskUnits="userSpaceOnUse" width="174.662" x=".072" y=".16"><path clip-rule="evenodd" d="m.072.16h174.662v183.84h-174.662z" fill="#fff" fill-rule="evenodd"/></mask><mask id="d" height="183.84" maskUnits="userSpaceOnUse" width="130.749" x=".103" y=".16"><path clip-rule="evenodd" d="m.103.16h130.748v183.84h-130.748z" fill="#fff" fill-rule="evenodd"/></mask><g clip-rule="evenodd" fill="#2e2d2c" fill-rule="evenodd"><path d="m165.632 139.057 32.501-6.7c1.985 20.345 12.157 44.906 38.207 44.906 16.623 0 31.013-10.42 31.013-30.268 0-21.087-16.623-31.011-39.447-42.424-32.006-16.126-54.582-27.539-54.582-56.814 0-32.006 25.803-47.139 55.821-47.139 35.974 0 56.318 22.08 64.506 38.456l-32.998 6.697c-1.736-17.614-10.171-38.454-32.004-38.454-13.149 0-27.29 7.691-27.29 26.546 0 18.11 12.653 24.314 42.673 39.944 33.741 17.615 52.348 28.283 52.348 58.303 0 36.967-27.787 52.348-61.031 52.348-42.922 0-63.018-25.802-69.717-45.401"/><path d="m455.393 80.307c-19.429-34.331-63.372-78.735-98.351-58.939-23.536 13.319-27.058 46.385-6.041 83.523 19.918 35.195 64.236 78.246 98.567 58.817 22.672-12.83 27.453-45.185 5.825-83.401m-128.153 55.134c-27.493-48.581-14.118-97.486 30.793-122.903 45.127-25.538 93.843-11.487 121.214 36.879 27.372 48.367 14.459 97.58-30.669 123.119-44.912 25.416-93.844 11.487-121.338-37.095"/><path d="m511.474 139.057 32.499-6.7c1.986 20.345 12.159 44.906 38.208 44.906 16.622 0 31.012-10.42 31.012-30.268 0-21.087-16.621-31.011-39.447-42.424-32.004-16.126-54.582-27.539-54.582-56.814 0-32.006 25.803-47.139 55.823-47.139 35.974 0 56.318 22.08 64.506 38.456l-32.998 6.697c-1.736-17.614-10.171-38.454-32.004-38.454-13.151 0-27.29 7.691-27.29 26.546 0 18.11 12.651 24.314 42.671 39.944 33.743 17.615 52.348 28.283 52.348 58.303 0 36.967-27.786 52.348-61.031 52.348-42.923 0-63.017-25.802-69.715-45.401"/><path d="m0 .385h107.675v6.947h-73.685v72.197h66.49v7.442h-66.49v90.804h-33.99z" mask="url(#a)" transform="translate(0 223.356)"/><path d="m138.746 107.09c0-39.447-16.376-99.735-56.566-99.735-27.043 0-46.396 27.043-46.396 69.715 0 40.44 17.367 99.735 56.816 99.735 26.05 0 46.146-25.802 46.146-69.715m-138.687-15.135c0-55.821 35.725-91.795 87.33-91.795 51.853 0 87.331 36.222 87.331 91.795 0 55.575-35.478 92.045-87.331 92.045-51.605 0-87.33-36.222-87.33-92.045" mask="url(#b)" transform="translate(122 220.356)"/><path d="m138.759 107.09c0-39.447-16.374-99.735-56.566-99.735-27.043 0-46.394 27.043-46.394 69.715 0 40.44 17.367 99.735 56.814 99.735 26.05 0 46.146-25.802 46.146-69.715m-138.687-15.135c0-55.821 35.727-91.795 87.332-91.795 51.853 0 87.33 36.222 87.33 91.795 0 55.575-35.477 92.045-87.33 92.045-51.605 0-87.332-36.222-87.332-92.045" mask="url(#c)" transform="translate(315 220.356)"/><path d="m570.856 393.936c33.741 0 54.582-31.261 54.582-83.609 0-54.83-23.073-79.64-65.498-79.64h-11.412v163.249zm-56.318-170.195h46.891c67.979 0 100.479 34.733 100.479 85.097 0 51.357-33.493 92.293-89.316 92.293h-58.054z"/><path d="m.103 138.599 32.502-6.699c1.984 20.344 12.156 44.905 38.206 44.905 16.624 0 31.013-10.419 31.013-30.268 0-21.087-16.623-31.011-39.447-42.424-32.006-16.126-54.582-27.538-54.582-56.814 0-32.006 25.803-47.139 55.821-47.139 35.974 0 56.318 22.081 64.506 38.456l-32.997 6.697c-1.736-17.614-10.172-38.453-32.004-38.453-13.149 0-27.291 7.69-27.291 26.545 0 18.111 12.653 24.314 42.673 39.944 33.741 17.615 52.349 28.283 52.349 58.303 0 36.967-27.787 52.348-61.032 52.348-42.922 0-63.018-25.802-69.717-45.401" mask="url(#d)" transform="translate(677 220.356)"/></g></svg>